<?xml version="1.0" encoding="UTF-8" standalone="no"?>
<!--
Licensed to the Apache Software Foundation (ASF) under one
or more contributor license agreements.  See the NOTICE file
distributed with this work for additional information
regarding copyright ownership.  The ASF licenses this file
to you under the Apache License, Version 2.0 (the
"License"); you may not use this file except in compliance
with the License.  You may obtain a copy of the License at

  http://www.apache.org/licenses/LICENSE-2.0

Unless required by applicable law or agreed to in writing,
software distributed under the License is distributed on an
"AS IS" BASIS, WITHOUT WARRANTIES OR CONDITIONS OF ANY
KIND, either express or implied.  See the License for the
specific language governing permissions and limitations
under the License.
-->

<svg
   width="24"
   height="24"
   viewBox="0 0 24 24"
   fill="none"
   version="1.1"
   id="svg35"
   xmlns="http://www.w3.org/2000/svg">
  <defs
     id="defs39" />
  <path
     style="fill:#000000;stroke-width:0.999999"
     id="path580"
     d="M 6.6593818,10.030886 C 6.5237979,9.4568923 6.511342,8.8455145 6.6249207,8.2662014 6.6657698,8.0578685 6.7321344,7.8553636 6.7857474,7.6499458 6.8749003,7.4391419 6.9471171,7.2203387 7.0532193,7.0175338 7.3984695,6.3576129 7.9093657,5.7898131 8.5154695,5.3587448 9.0772525,4.9591976 9.3101515,4.9020526 9.9450395,4.6329696 10.219089,4.5571806 10.488641,4.4626973 10.767184,4.4056039 c 1.139865,-0.2336395 2.360674,-0.1862411 3.455382,0.2258954 0.249937,0.094097 0.482306,0.2295035 0.723459,0.3442553 0.208209,0.1447878 0.429738,0.2720885 0.624625,0.4343635 0.777149,0.647101 1.305052,1.578743 1.509077,2.5654825 0.05583,0.2700393 0.066,0.5475405 0.09899,0.8213107 -0.0084,0.2894711 0.0035,0.5802331 -0.02509,0.8684145 -0.09344,0.9431832 -0.387834,1.8402082 -0.835613,2.6732022 -0.403577,0.750768 -0.6385,1.016382 -1.14364,1.698048 -0.782347,0.916787 -0.396753,0.484387 -1.152595,1.300924 -0.958794,1.038069 0.509256,2.39401 1.468052,1.355941 v 0 c 0.842556,-0.914039 0.408748,-0.424664 1.295097,-1.473708 0.596176,-0.817546 0.882216,-1.145723 1.352922,-2.055407 0.559564,-1.081407 0.920669,-2.251031 1.013975,-3.4680955 0.02989,-0.3899029 0.0044,-0.7820834 0.0064,-1.1731246 C 19.00502,7.5077735 19.033265,7.2552308 18.633643,6.3104469 18.210139,5.3092026 17.540224,4.4205755 16.683172,3.7499823 16.39875,3.5274398 16.078344,3.3551846 15.77593,3.1577857 14.83879,2.7427987 14.66813,2.6031011 13.645979,2.4113824 12.515117,2.1992732 11.335997,2.2337451 10.214551,2.4850982 9.8507735,2.5666328 9.4996765,2.6969476 9.1422395,2.8028723 8.2707094,3.1948659 7.9785353,3.2678917 7.2093538,3.8461961 6.3611942,4.4838794 5.6677897,5.3132956 5.2012093,6.2666667 5.0587465,6.5577642 4.9640238,6.8698888 4.8454305,7.1714999 4.7765083,7.463027 4.6894827,7.7508614 4.6386455,8.0460817 c -0.1361366,0.790572 -0.1152623,1.6267557 0.067759,2.4084163 0.022025,0.09407 0.054522,0.185391 0.081783,0.278087 0.4961749,1.323134 2.3673695,0.621436 1.8711943,-0.701699 z" />
  <path
     style="fill:#000000"
     id="path1079"
     d="M 6.7942771,10.943404 C 6.9270946,10.672994 7.0663456,10.405713 7.2213714,10.147346 7.4263132,9.7874903 7.6952138,9.4724877 7.969684,9.1648204 8.2217047,8.8787539 8.5236726,8.6472349 8.834007,8.4289174 9.1193965,8.2368609 9.4256324,8.0822065 9.7390496,7.9422355 9.9618613,7.8299386 10.192128,7.7419136 10.4355,7.6880249 c 0.173438,-0.030346 0.348952,-0.038788 0.524041,-0.021154 0.206537,0.028212 0.407325,0.085735 0.606789,0.1445764 0.216422,0.064136 0.42717,0.1454102 0.635092,0.2328772 0.139755,0.056258 0.261313,0.1435315 0.380544,0.2335377 0.121138,0.08626 0.214393,0.2004203 0.307666,0.3145867 0.131815,0.1539981 0.250085,0.3167895 0.354735,0.4902103 0.09007,0.1310805 0.137973,0.2786041 0.186268,0.4278851 0.03203,0.1330669 0.03834,0.2706187 0.04365,0.4068623 0.0072,0.1789664 -0.01271,0.3578414 -0.04032,0.5344164 -0.0091,0.146629 -0.07161,0.269892 -0.128561,0.401985 -0.06719,0.11313 -0.138903,0.223099 -0.216248,0.32958 -0.112049,0.124116 -0.232552,0.240266 -0.351575,0.357604 -0.181276,0.163042 -0.379649,0.305137 -0.574175,0.451642 -0.180723,0.134427 -0.370851,0.255749 -0.560189,0.377577 -0.192358,0.117384 -0.386333,0.232345 -0.575059,0.355603 -0.209736,0.140945 -0.394858,0.313589 -0.584573,0.479485 -0.201664,0.168947 -0.374122,0.366713 -0.5366105,0.572517 -0.1381343,0.169426 -0.2619593,0.349754 -0.3742994,0.537072 -0.132039,0.213035 -0.2100934,0.45171 -0.2793689,0.690793 -0.058137,0.226287 -0.078802,0.459475 -0.089237,0.69215 -0.0063,0.156905 -0.00496,0.313465 0.00607,0.470014 0.00795,0.09494 0.030971,0.185025 0.053041,0.277568 0.3210901,1.120706 1.9060078,0.666616 1.5849178,-0.45409 v 0 c 0.02206,0.124263 0.0085,0.04503 0.0025,0.01184 -3.32e-4,0.0097 -5.21e-4,0.0388 -9.97e-4,0.0291 -0.0043,-0.0877 0.0023,-0.175986 0.0017,-0.263722 0.0041,-0.104252 0.01184,-0.208358 0.02778,-0.311551 0.02904,-0.105971 0.0566,-0.214471 0.115726,-0.307905 0.0684,-0.125389 0.159873,-0.237621 0.246782,-0.350337 0.09951,-0.126354 0.201433,-0.250651 0.327362,-0.352367 0.133131,-0.116426 0.262377,-0.238222 0.405068,-0.342998 0.18331,-0.121893 0.375289,-0.230351 0.561879,-0.347025 0.223193,-0.143829 0.446988,-0.287477 0.65953,-0.44684 0.252678,-0.190367 0.509552,-0.376496 0.739705,-0.59448 0.185207,-0.182605 0.374744,-0.362734 0.533165,-0.569864 0.145538,-0.203983 0.284643,-0.413573 0.392016,-0.640673 0.111371,-0.260007 0.214577,-0.524161 0.244153,-0.808083 0.04111,-0.281088 0.07036,-0.56491 0.05706,-0.8494258 C 15.108615,9.5622815 15.083827,9.2764908 14.999156,9.002702 14.910755,8.7298527 14.806154,8.4633339 14.649947,8.2209714 14.503172,7.9837374 14.343203,7.755901 14.161707,7.5436461 13.984747,7.3302569 13.798633,7.1238623 13.572936,6.9602353 13.34441,6.7888295 13.104283,6.6329375 12.838908,6.5238731 12.574396,6.4132615 12.306275,6.3107058 12.031058,6.2296165 11.722774,6.1393431 11.411081,6.055548 11.090442,6.023391 10.745999,5.9989643 10.400758,6.0092031 10.061859,6.0822373 9.7167536,6.164616 9.3822076,6.2782583 9.0644391,6.4378876 8.6542978,6.6224173 8.2540137,6.8280857 7.8821839,7.0827396 7.4705968,7.3748966 7.0729094,7.6878679 6.7382642,8.068569 6.3950282,8.4548125 6.0631243,8.8533698 5.8051242,9.3033042 5.6408066,9.580423 5.4866981,9.8635911 5.3469039,10.153928 c -0.558244,1.023447 0.8891292,1.812924 1.4473732,0.789476 z" />
  <path
     style="fill:#000000"
     id="path1091"
     d="m 9.4456333,15.965945 c -0.2131247,0.07265 -0.3469068,0.110465 -0.5577694,0.227111 -0.4678496,0.258809 -0.8706166,0.622043 -1.1743339,1.063301 -0.1146819,0.166616 -0.2017179,0.350659 -0.3025769,0.525988 -0.1710267,0.510264 -0.303982,0.742121 -0.2556196,1.305752 0.085139,0.992238 0.6668868,1.725482 1.4927078,2.246004 0.3575972,0.225397 0.7622641,0.365611 1.1433962,0.548416 0.4570955,0.121596 0.9054175,0.283007 1.3712865,0.364787 0.95902,0.168351 2.041734,0.193738 3.006049,0.04579 0.870424,-0.13354 1.75343,-0.411447 2.486916,-0.916189 0.31274,-0.215209 0.555532,-0.51756 0.833298,-0.776341 0.16239,-0.312899 0.385905,-0.601027 0.487171,-0.938698 0.205579,-0.6855 0.11221,-1.285626 -0.179422,-1.921708 -0.118729,-0.258961 -0.316326,-0.473885 -0.474489,-0.710828 -0.681896,-0.945568 -2.019131,0.01878 -1.337235,0.964347 v 0 c 0.150709,0.178691 0.35867,0.386763 0.43756,0.61878 0.126185,0.371114 0.02846,0.442226 -0.0941,0.817052 -0.148544,0.163692 -0.269597,0.357388 -0.445631,0.491076 -0.532571,0.404457 -1.179902,0.617257 -1.831014,0.727977 -0.795882,0.135338 -1.684127,0.125072 -2.479963,0.0016 -0.37107,-0.05756 -0.729635,-0.177917 -1.094453,-0.266876 C 9.8701059,20.124306 9.6472903,20.093704 9.1773356,19.698527 9.0099152,19.557747 8.8573156,19.363925 8.802993,19.146178 8.744152,18.910318 8.800173,18.805885 8.855669,18.576642 8.90518,18.478482 8.94635,18.375645 9.0042021,18.282155 9.1481107,18.049596 9.3490457,17.831659 9.5834503,17.68779 9.7075963,17.61159 9.786389,17.5914 9.9193788,17.545068 11.03601,17.21011 10.562264,15.630956 9.4456333,15.965945 Z" />
  <path
     style="fill:#000000"
     id="path1093"
     d="m 8.8439735,17.11733 c 0.2044039,0.29468 0.4515769,0.563212 0.760108,0.752198 0.3126519,0.191512 0.4565045,0.221545 0.8013045,0.343185 0.415573,0.09578 0.546234,0.145197 0.982033,0.16402 0.171821,0.0074 0.343874,-0.0078 0.51581,-0.01164 1.164999,-0.04313 1.104008,-1.690684 -0.06099,-1.647557 v 0 c -0.09808,0.0061 -0.195972,0.0195 -0.294234,0.01835 -0.270571,-0.0032 -0.355415,-0.03259 -0.614893,-0.08512 -0.154309,-0.04804 -0.346624,-0.08742 -0.481015,-0.187726 -0.08666,-0.06468 -0.155968,-0.152322 -0.221284,-0.237253 -0.6304134,-0.980643 -2.0172517,-0.0891 -1.3868385,0.891539 z" />
</svg>
